<?xml version="1.0" standalone="no"?>
<!DOCTYPE svg PUBLIC "-//W3C//DTD SVG 20010904//EN"
 "http://www.w3.org/TR/2001/REC-SVG-20010904/DTD/svg10.dtd">
<svg version="1.0" xmlns="http://www.w3.org/2000/svg"
 width="99.000000pt" height="99.000000pt" viewBox="0 0 99.000000 99.000000"
 preserveAspectRatio="xMidYMid meet">
<metadata>
Created by potrace 1.11, written by Peter Selinger 2001-2013
</metadata>
<g transform="translate(0.000000,99.000000) scale(0.100000,-0.100000)"
fill="#000000" stroke="none">
<path d="M70 955 c0 -33 -2 -35 -35 -35 l-35 0 0 -70 0 -70 35 0 c33 0 35 -2
35 -35 0 -21 5 -35 13 -36 6 -1 51 -2 99 -3 47 0 90 -4 94 -9 4 -4 7 -147 7
-317 l-1 -310 34 0 c32 0 34 -2 34 -35 l0 -35 143 0 144 0 -1 33 c-1 29 2 32
35 37 l35 5 -1 295 c0 162 1 304 3 316 4 20 10 21 95 20 51 -1 98 0 105 2 6 2
12 19 12 38 0 32 2 34 34 34 l35 0 0 70 0 70 -34 0 c-35 0 -42 11 -36 58 2 9
-89 12 -424 12 l-425 0 0 -35z m140 -70 c0 -33 -2 -35 -35 -35 -33 0 -35 -2
-35 -35 0 -33 -2 -35 -35 -35 l-35 0 0 70 0 70 70 0 70 0 0 -35z"/>
</g>
</svg>
