<?xml version="1.0" standalone="no"?>
<!DOCTYPE svg PUBLIC "-//W3C//DTD SVG 20010904//EN"
 "http://www.w3.org/TR/2001/REC-SVG-20010904/DTD/svg10.dtd">
<svg version="1.0" xmlns="http://www.w3.org/2000/svg"
 width="117.000000pt" height="117.000000pt" viewBox="0 0 117.000000 117.000000"
 preserveAspectRatio="xMidYMid meet">
<metadata>
Created by potrace 1.11, written by Peter Selinger 2001-2013
</metadata>
<g transform="translate(0.000000,117.000000) scale(0.100000,-0.100000)"
fill="#000000" stroke="none">
<path d="M0 945 l0 -45 90 0 90 0 0 -360 0 -360 90 0 90 0 0 360 0 360 90 0
90 0 0 45 0 45 -270 0 -270 0 0 -45z"/>
<path d="M720 945 l0 -45 -45 0 -45 0 0 -270 0 -270 45 0 45 0 0 -45 0 -45 45
0 45 0 0 -45 0 -45 90 0 90 0 0 45 0 45 45 0 45 0 0 45 0 45 45 0 45 0 0 270
0 270 -45 0 -45 0 0 45 0 45 -45 0 -45 0 0 -315 0 -315 -90 0 -90 0 0 315 0
315 -45 0 -45 0 0 -45z"/>
</g>
</svg>
